<svg width="94" height="90" viewBox="0 0 94 90" fill="none" xmlns="http://www.w3.org/2000/svg">
<path d="M34.1043 21.069L21 45.8218L34.1043 33.8033L39.7845 41.1877L45.9629 34.8582L50.8957 76H64L48.3546 17L39.7845 34.8582L34.1043 21.069Z" fill="#F28705" stroke="black"/>
<path d="M61.8145 46V31.9961H63.0742V46H61.8145ZM66.082 46V31.9961H67.3418V44.7988H72.7031V46H66.082ZM82.3809 42.7578C82.3809 43.2331 82.2897 43.679 82.1074 44.0957C81.9316 44.5124 81.6875 44.877 81.375 45.1895C81.0625 45.502 80.6979 45.7493 80.2812 45.9316C79.8646 46.1074 79.4186 46.1953 78.9434 46.1953H77.9473C77.472 46.1953 77.0228 46.1074 76.5996 45.9316C76.1829 45.7493 75.8184 45.502 75.5059 45.1895C75.1934 44.877 74.946 44.5124 74.7637 44.0957C74.5879 43.679 74.5 43.2331 74.5 42.7578V35.2383C74.5 34.763 74.5879 34.3171 74.7637 33.9004C74.946 33.4837 75.1934 33.1191 75.5059 32.8066C75.8184 32.4941 76.1829 32.25 76.5996 32.0742C77.0228 31.8919 77.472 31.8008 77.9473 31.8008H78.9434C79.4186 31.8008 79.8646 31.8919 80.2812 32.0742C80.6979 32.25 81.0625 32.4941 81.375 32.8066C81.6875 33.1191 81.9316 33.4837 82.1074 33.9004C82.2897 34.3171 82.3809 34.763 82.3809 35.2383V42.7578ZM81.1211 35.2383C81.1211 34.9258 81.0625 34.6361 80.9453 34.3691C80.8281 34.0957 80.6686 33.8581 80.4668 33.6562C80.265 33.4544 80.0273 33.2949 79.7539 33.1777C79.487 33.0605 79.1973 33.002 78.8848 33.002H78.0059C77.6934 33.002 77.4004 33.0605 77.127 33.1777C76.86 33.2949 76.6224 33.4544 76.4141 33.6562C76.2122 33.8581 76.0527 34.0957 75.9355 34.3691C75.8184 34.6361 75.7598 34.9258 75.7598 35.2383V42.7578C75.7598 43.0703 75.8184 43.3633 75.9355 43.6367C76.0527 43.9036 76.2122 44.1413 76.4141 44.3496C76.6224 44.5514 76.86 44.7109 77.127 44.8281C77.4004 44.9453 77.6934 45.0039 78.0059 45.0039H78.8848C79.1973 45.0039 79.487 44.9453 79.7539 44.8281C80.0273 44.7109 80.265 44.5514 80.4668 44.3496C80.6686 44.1413 80.8281 43.9036 80.9453 43.6367C81.0625 43.3633 81.1211 43.0703 81.1211 42.7578V35.2383Z" fill="white"/>
</svg>
