<svg width="136" height="76" viewBox="0 0 136 76" fill="none" xmlns="http://www.w3.org/2000/svg">
<path d="M32.1043 20.069L19 44.8218L32.1043 32.8033L37.7845 40.1877L43.9629 33.8582L48.8957 75H62L46.3546 16L37.7845 33.8582L32.1043 20.069Z" fill="#FF0000" stroke="black"/>
<path d="M60.0149 31.14H61.9549V45H60.0149V31.14ZM73.726 43.32V45H65.386V31.14H67.326V43.32H73.726ZM74.2987 38.06C74.2987 36.8733 74.472 35.8267 74.8187 34.92C75.1787 34.0133 75.6587 33.26 76.2587 32.66C76.872 32.0467 77.5787 31.5867 78.3787 31.28C79.192 30.9733 80.052 30.82 80.9587 30.82C81.852 30.82 82.692 30.9733 83.4787 31.28C84.2787 31.5867 84.9787 32.0467 85.5787 32.66C86.1787 33.26 86.652 34.0133 86.9987 34.92C87.3587 35.8267 87.5387 36.8733 87.5387 38.06C87.5387 39.2467 87.3587 40.2933 86.9987 41.2C86.652 42.1067 86.1787 42.8667 85.5787 43.48C84.9787 44.08 84.2787 44.5333 83.4787 44.84C82.692 45.1467 81.852 45.3 80.9587 45.3C80.052 45.3 79.192 45.1467 78.3787 44.84C77.5787 44.5333 76.872 44.08 76.2587 43.48C75.6587 42.8667 75.1787 42.1067 74.8187 41.2C74.472 40.2933 74.2987 39.2467 74.2987 38.06ZM76.3387 38.06C76.3387 38.9 76.4453 39.6667 76.6587 40.36C76.872 41.04 77.172 41.62 77.5587 42.1C77.9587 42.58 78.4387 42.9533 78.9987 43.22C79.572 43.4733 80.212 43.6 80.9187 43.6C81.6253 43.6 82.2587 43.4733 82.8187 43.22C83.3787 42.9533 83.852 42.58 84.2387 42.1C84.6387 41.62 84.9453 41.04 85.1587 40.36C85.372 39.6667 85.4787 38.9 85.4787 38.06C85.4787 37.22 85.372 36.46 85.1587 35.78C84.9453 35.0867 84.6387 34.5 84.2387 34.02C83.852 33.54 83.3787 33.1733 82.8187 32.92C82.2587 32.6533 81.6253 32.52 80.9187 32.52C80.212 32.52 79.572 32.6533 78.9987 32.92C78.4387 33.1733 77.9587 33.54 77.5587 34.02C77.172 34.5 76.872 35.0867 76.6587 35.78C76.4453 36.46 76.3387 37.22 76.3387 38.06Z" fill="black"/>
</svg>
